<?xml version="1.0" encoding="UTF-8"?>
<svg width="576px" height="90px" viewBox="0 0 576 90" version="1.1" xmlns="http://www.w3.org/2000/svg" xmlns:xlink="http://www.w3.org/1999/xlink">
    <!-- Generator: Sketch 46.2 (44496) - http://www.bohemiancoding.com/sketch -->
    <title>logo</title>
    <desc>Created with Sketch.</desc>
    <defs>
        <polygon id="path-1" points="545.762 89.94 0 89.94 0 45.178 0 0.416 545.762 0.416 545.762 89.94"></polygon>
    </defs>
    <g id="Page-1" stroke="none" stroke-width="1" fill="none" fill-rule="evenodd">
        <g id="logo">
            <polyline id="Fill-1" fill="#FFFFFF" points="70.775 13.302 70.775 87.77 59.318 87.77 59.318 13.302 50.488 13.302 50.488 2.562 79.725 2.562 79.725 13.302 70.775 13.302"></polyline>
            <polyline id="Fill-2" fill="#FFFFFF" points="102.042 51.253 95.479 51.253 95.479 87.77 84.022 87.77 84.022 2.562 95.479 2.562 95.479 41.228 102.042 41.228 102.042 2.562 113.499 2.562 113.499 87.77 102.042 87.77 102.042 51.253"></polyline>
            <polygon id="Fill-3" fill="#FFFFFF" points="119.826 87.771 131.283 87.771 131.283 2.561 119.826 2.561"></polygon>
            <path d="M165.868,70.944 C165.868,83.713 159.661,88.487 151.309,88.487 C141.403,88.487 136.391,83.474 136.391,71.778 L136.391,59.845 L147.848,59.845 L147.848,72.614 C147.848,76.672 149.28,77.746 151.189,77.746 C153.694,77.746 154.411,75.24 154.411,71.421 L154.411,68.198 C154.411,61.994 152.86,60.084 145.938,49.581 C140.09,40.512 136.867,32.635 136.867,24.162 L136.867,20.702 C136.867,8.05 142.119,1.846 151.547,1.846 C159.781,1.846 165.987,4.47 165.987,20.702 L165.987,31.442 L154.769,31.442 L154.769,19.627 C154.769,14.973 153.933,12.586 151.547,12.586 C149.041,12.586 148.085,14.376 148.085,19.627 L148.085,21.894 C148.085,29.174 150.353,33.59 156.081,42.421 C162.168,51.849 165.868,57.458 165.868,67.125 L165.868,70.944" id="Fill-4" fill="#FFFFFF"></path>
            <polygon id="Fill-5" fill="#FFFFFF" points="182.839 87.771 194.295 87.771 194.295 2.561 182.839 2.561"></polygon>
            <path d="M228.88,70.944 C228.88,83.713 222.674,88.487 214.321,88.487 C204.415,88.487 199.402,83.474 199.402,71.778 L199.402,59.845 L210.859,59.845 L210.859,72.614 C210.859,76.672 212.292,77.746 214.202,77.746 C216.707,77.746 217.423,75.24 217.423,71.421 L217.423,68.198 C217.423,61.994 215.872,60.084 208.949,49.581 C203.103,40.512 199.881,32.635 199.881,24.162 L199.881,20.702 C199.881,8.05 205.13,1.846 214.56,1.846 C222.793,1.846 229,4.47 229,20.702 L229,31.442 L217.782,31.442 L217.782,19.627 C217.782,14.973 216.946,12.586 214.56,12.586 C212.053,12.586 211.098,14.376 211.098,19.627 L211.098,21.894 C211.098,29.174 213.365,33.59 219.094,42.421 C225.181,51.849 228.88,57.458 228.88,67.125 L228.88,70.944" id="Fill-6" fill="#FFFFFF"></path>
            <polyline id="Fill-7" fill="#FFFFFF" points="242.366 2.562 254.181 2.562 255.732 50.417 255.971 59.964 256.806 50.417 260.744 2.562 270.53 2.562 274.708 50.417 275.424 59.249 275.663 50.417 277.093 2.562 288.67 2.562 281.629 87.772 269.218 87.772 265.996 43.495 265.399 35.499 264.802 43.495 261.102 87.772 248.572 87.772 242.366 2.562"></polyline>
            <polyline id="Fill-8" fill="#FFFFFF" points="309.914 51.253 303.351 51.253 303.351 87.77 291.894 87.77 291.894 2.562 303.351 2.562 303.351 41.228 309.914 41.228 309.914 2.562 321.371 2.562 321.371 87.77 309.914 87.77 309.914 51.253"></polyline>
            <polyline id="Fill-9" fill="#FFFFFF" points="334.739 87.771 334.739 64.618 324.476 2.561 336.648 2.561 341.064 47.791 345.24 2.561 356.816 2.561 346.195 65.335 346.195 87.771 334.739 87.771"></polyline>
            <polyline id="Fill-10" fill="#FFFFFF" points="368.68 2.562 380.495 2.562 382.046 50.417 382.285 59.964 383.119 50.417 387.058 2.562 396.844 2.562 401.021 50.417 401.738 59.249 401.977 50.417 403.407 2.562 414.983 2.562 407.943 87.772 395.532 87.772 392.31 43.495 391.713 35.499 391.116 43.495 387.416 87.772 374.886 87.772 368.68 2.562"></polyline>
            <polyline id="Fill-11" fill="#FFFFFF" points="440.405 87.771 418.208 87.771 418.208 2.561 440.405 2.561 440.405 13.303 429.665 13.303 429.665 39.558 438.972 39.558 438.972 48.866 429.665 48.866 429.665 77.031 440.405 77.031 440.405 87.771"></polyline>
            <path d="M467.424,62.471 L467.424,87.77 L455.967,87.77 L455.967,2.562 L470.17,2.562 C479.835,2.562 485.444,7.932 485.444,19.747 L485.444,44.927 C485.444,56.623 479.835,62.471 470.17,62.471 L467.424,62.471 Z M467.424,13.302 L467.424,52.207 L469.334,52.207 C473.033,52.207 473.987,50.179 473.987,46.122 L473.987,19.389 C473.987,15.331 473.033,13.302 469.334,13.302 L467.424,13.302 L467.424,13.302 Z" id="Fill-12" fill="#FFFFFF"></path>
            <polyline id="Fill-13" fill="#FFFFFF" points="490.075 87.771 490.075 2.561 501.532 2.561 501.532 77.031 510.96 77.031 510.96 87.771 490.075 87.771"></polyline>
            <polyline id="Fill-14" fill="#FFFFFF" points="564.424 2.561 560.248 47.792 555.83 2.561 543.658 2.561 553.921 64.619 553.921 87.771 565.378 87.771 565.378 65.335 576 2.561 564.424 2.561"></polyline>
            <g id="Group-18">
                <mask id="mask-2" fill="white">
                    <use xlink:href="#path-1"></use>
                </mask>
                <g id="Clip-16"></g>
                <path d="M526.085,62.134 L532.167,62.134 L531.213,46.512 C530.855,40.31 529.902,20.631 529.186,10.019 L528.71,10.019 L527.039,46.512 L526.085,62.134 Z M532.764,71.794 L525.607,71.794 L524.654,87.775 L513.087,87.775 L521.433,2.625 L537.653,2.625 L545.762,87.775 L533.718,87.775 L532.764,71.794 L532.764,71.794 Z" id="Fill-15" fill="#FFFFFF" mask="url(#mask-2)"></path>
                <path d="M30.248,0.416 L9.273,0.416 C4.156,0.416 0,4.578 0,9.689 L0,80.715 C0,85.833 4.156,90 9.273,90 L30.234,90 C35.349,90 39.527,85.833 39.527,80.715 L39.527,9.689 C39.527,4.578 35.362,0.416 30.248,0.416" id="Fill-17" fill="#FFFFFF" mask="url(#mask-2)"></path>
            </g>
            <path d="M25.045,16.839 L25.067,17.142 C25.707,17.515 26.031,17.818 26.676,18.234 C28.387,19.31 30.494,21.224 30.228,27.819 C30.707,29.257 30.919,32.084 31.362,32.99 C32.253,34.756 32.848,35.906 33.108,37.574 C33.108,37.574 33.365,40.169 33.7,40.357 C35.469,40.756 34.958,40.93 35.216,41.233 C35.491,41.589 36.512,41.572 36.512,42.524 C36.867,42.998 37.128,43.491 37.328,44.003 L37.328,9.688 C37.328,5.778 34.147,2.603 30.248,2.603 L23.471,2.603 C24.56,2.989 25.174,3.446 25.533,4.171 C26.408,4.246 27.449,6.208 25.828,9.105 C26.546,9.583 25.986,10.297 25.47,11.126 C25.32,11.393 25.155,11.865 24.675,11.833 C24.06,13.128 23.316,14.382 22.755,14.462 C22.585,14.672 22.461,15.229 22.717,15.49 C23.542,15.86 24.547,16.367 25.045,16.839" id="Fill-19" fill="#C8102E"></path>
            <path d="M37.328,48.653 C36.408,50.986 34.119,52.634 31.446,52.634 C27.946,52.634 25.125,49.806 25.125,46.317 C25.125,43.337 27.174,40.837 29.955,40.17 C29.226,38.347 27.688,35.392 27.231,34.422 C26.799,33.459 25.757,27.45 25.533,26.261 C25.481,26.002 22.806,27.814 22.801,27.926 C22.645,28.077 20.794,32.911 20.716,33.172 C20.679,33.337 20.674,33.983 20.674,33.983 C20.674,33.983 21.584,34.095 22.108,35.683 C22.626,37.269 24.207,43.058 24.207,43.058 C24.207,43.058 23.779,43.501 23.761,43.474 C25.757,50.157 25.059,53.033 25.955,54.992 C27.081,57.755 27.385,57.393 28.351,59.714 C29.044,61.405 29.816,68.059 30.074,68.354 C31.152,69.72 31.732,70.788 31.732,71.559 C31.732,72.334 30.819,74.626 31.152,75.96 C31.354,76.745 31.459,78.506 31.825,78.84 C31.825,78.84 32.16,79.501 31.996,79.794 C31.948,79.896 31.853,80.049 31.896,80.17 C32.49,82.269 34.409,85.847 31.301,87.721 L31.368,87.721 C34.759,87.197 37.328,84.287 37.328,80.715 L37.328,48.653" id="Fill-20" fill="#C8102E"></path>
            <path d="M29.347,79.354 C28.207,78.337 28.968,77.907 28.923,77.506 C28.172,74.404 25.707,72.527 26.982,71.503 C26.668,70.478 26.027,69.192 26.051,69.194 C22.21,66.989 18.94,63.406 18.384,62.881 C17.711,62.149 16.564,61.414 16.348,60.819 C15.425,59.971 10.898,53.55 9.844,51.185 L8.006,50.926 C7.171,47.511 4.38,44.65 4.311,41.227 C4.285,39.933 4.898,37.16 5.126,36.607 C5.349,36.047 6.419,35.126 6.419,35.126 L6.419,34.21 C2.411,34.324 3.563,33.915 2.872,32.356 C2.387,31.278 2.735,31.041 2.91,30.292 C3.447,28.083 5.234,24.677 5.973,23.129 C6.199,22.348 6.972,20.465 6.972,20.465 C9.959,14.383 11.074,14.83 14.621,14.487 L14.796,14.235 C18.351,14.081 17.769,13.813 18.271,10.389 C17.753,10.611 17.599,9.316 17.599,9.316 C17.316,7.367 18.138,7.737 18.528,7.698 C18.611,4.494 18.94,3.485 21.251,2.602 L9.277,2.602 C5.359,2.602 2.186,5.778 2.186,9.693 L2.186,80.715 C2.186,84.634 5.359,87.809 9.277,87.809 L30.249,87.809 C27.848,86.512 29.265,84.042 29.347,79.354" id="Fill-21" fill="#1D428A"></path>
            <path d="M8.147,83.346 L6.65,83.346 L6.65,70.487 L9.021,70.487 L10.927,81.023 C10.767,78.502 10.552,75.458 10.552,72.865 L10.552,70.487 L12.05,70.487 L12.05,83.346 L9.876,83.346 L7.97,73.043 C8.094,75.421 8.147,77.313 8.147,79.294 L8.147,83.346 Z M21.333,71.928 L21.245,71.928 C21.138,73.476 20.924,76.196 20.852,77.06 L20.657,79.275 L21.993,79.275 L21.797,77.06 C21.725,76.178 21.476,73.495 21.333,71.928 L21.333,71.928 Z M22.101,80.734 L20.55,80.734 L20.335,83.346 L18.607,83.346 L20.158,70.487 L22.617,70.487 L24.113,83.346 L22.314,83.346 L22.101,80.734 Z M14.954,72.108 L14.954,76.358 L15.596,76.358 C16.202,76.358 16.362,76.141 16.362,75.44 L16.362,72.973 C16.362,72.377 16.183,72.108 15.613,72.108 L14.954,72.108 Z M14.954,77.762 L14.954,81.725 L15.613,81.725 C16.202,81.725 16.362,81.418 16.362,80.806 L16.362,78.627 C16.362,77.996 16.166,77.762 15.596,77.762 L14.954,77.762 Z M13.244,83.346 L13.244,70.487 L15.738,70.487 C17.181,70.487 18.073,71.261 18.073,73.063 L18.073,74.972 C18.073,76.141 17.717,76.736 17.217,77.024 C17.717,77.367 18.073,77.943 18.073,78.915 L18.073,80.789 C18.073,82.554 17.128,83.346 15.738,83.346 L13.244,83.346 L13.244,83.346 Z" id="Fill-22" fill="#FFFFFF"></path>
        </g>
    </g>
</svg>